<svg width="160" height="42" viewBox="0 0 160 42" fill="none" xmlns="http://www.w3.org/2000/svg">
<path d="M160 5H155V34H160V5Z" fill="#323232"/>
<path fill-rule="evenodd" clip-rule="evenodd" d="M139.373 11C136.985 11 135.328 11.46 134.302 12.6953C133.296 13.9069 133 15.7513 133 18.2233V26.7767C133 29.2487 133.296 31.0931 134.302 32.3047C135.328 33.54 136.985 34 139.373 34H144.627C147.015 34 148.672 33.54 149.698 32.3047C150.704 31.0931 151 29.2487 151 26.7767V18.2233C151 15.7513 150.704 13.9069 149.698 12.6953C148.672 11.46 147.015 11 144.627 11H139.373ZM137.906 18.0642C137.906 17.1859 137.94 16.5113 138.029 15.9895C138.117 15.4678 138.253 15.1373 138.428 14.9166C138.764 14.4931 139.38 14.3075 140.785 14.3075H143.215C144.62 14.3075 145.236 14.4931 145.572 14.9166C145.747 15.1373 145.883 15.4678 145.971 15.9895C146.06 16.5113 146.094 17.1859 146.094 18.0642V26.9358C146.094 27.8141 146.06 28.4887 145.971 29.0105C145.883 29.5322 145.747 29.8627 145.572 30.0834C145.236 30.5069 144.62 30.6925 143.215 30.6925H140.785C139.38 30.6925 138.764 30.5069 138.428 30.0834C138.253 29.8627 138.117 29.5322 138.029 29.0105C137.94 28.4887 137.906 27.8141 137.906 26.9358V18.0642Z" fill="#323232"/>
<path fill-rule="evenodd" clip-rule="evenodd" d="M130 5H125.21V11.4692H119.223C116.891 11.4692 115.273 11.9198 114.272 13.13C113.289 14.3168 113 16.1236 113 18.5452V26.924C113 29.3456 113.289 31.1524 114.272 32.3393C115.273 33.5494 116.891 34 119.223 34H130V5ZM117.79 18.3893C117.79 17.5289 117.824 16.868 117.91 16.3569C117.996 15.8459 118.129 15.5222 118.3 15.3059C118.628 14.8911 119.229 14.7093 120.601 14.7093H125.21V30.76H120.601C119.229 30.76 118.628 30.5782 118.3 30.1633C118.129 29.9471 117.996 29.6234 117.91 29.1123C117.824 28.6012 117.79 27.9403 117.79 27.0799V18.3893Z" fill="#323232"/>
<path d="M97.8883 11H93L99.7738 33.4745L97.3063 42H101.912L111 11H106.461L102.052 27.252L97.8883 11Z" fill="#323232"/>
<path fill-rule="evenodd" clip-rule="evenodd" d="M79.3733 11C76.9853 11 75.3282 11.46 74.3024 12.6953C73.2965 13.9069 73 15.7513 73 18.2233V26.7767C73 29.2487 73.2965 31.0931 74.3024 32.3047C75.3282 33.54 76.9853 34 79.3733 34H84.6267C87.0147 34 88.6718 33.54 89.6976 32.3047C90.7035 31.0931 91 29.2487 91 26.7767V18.2233C91 15.7513 90.7035 13.9069 89.6976 12.6953C88.6718 11.46 87.0147 11 84.6267 11H79.3733ZM77.9059 18.0642C77.9059 17.1859 77.9404 16.5113 78.0286 15.9895C78.1169 15.4678 78.253 15.1373 78.4281 14.9166C78.7639 14.4931 79.38 14.3075 80.7847 14.3075H83.2153C84.62 14.3075 85.2361 14.4931 85.5719 14.9166C85.747 15.1373 85.8831 15.4678 85.9713 15.9895C86.0596 16.5113 86.0941 17.1859 86.0941 18.0642V26.9358C86.0941 27.8141 86.0596 28.4887 85.9713 29.0105C85.8831 29.5322 85.747 29.8627 85.5719 30.0834C85.2361 30.5069 84.62 30.6925 83.2153 30.6925H80.7847C79.38 30.6925 78.7639 30.5069 78.4281 30.0834C78.253 29.8627 78.1169 29.5322 78.0286 29.0105C77.9404 28.4887 77.9059 27.8141 77.9059 26.9358V18.0642Z" fill="#323232"/>
<path d="M59.6839 5H55V34H59.6839V24.2322L65.4723 34H71L63.3517 20.9661L70.6595 11.4692H66.2422L59.6839 20.1837V5Z" fill="#323232"/>
<path d="M23.0071 3.83687C22.0609 5.85222 20.7355 7.64259 19.1266 9.10918C19.5968 10.3433 20.1655 11.5264 20.8225 12.6481C23.5984 10.3606 25.7703 7.32489 27.0517 3.83687H34.2847V11.7231C30.4559 12.6409 26.9459 14.417 23.9554 16.8442C24.8354 17.7826 25.7905 18.6453 26.8108 19.4221C29.0286 17.7336 31.5542 16.4511 34.2847 15.6809C35.4864 15.3419 36.7277 15.1021 38 14.9707V0H24.2775C24.0034 1.34536 23.5731 2.63137 23.0071 3.83687Z" fill="#00807F"/>
<path d="M23.9554 16.8442C22.7653 15.5752 21.7128 14.168 20.8225 12.6481C19.8551 13.4453 18.8144 14.1516 17.7125 14.7546C18.7113 16.4396 19.8822 18.0041 21.1999 19.4221C22.0584 18.4982 22.9792 17.6365 23.9554 16.8442Z" fill="#00807F"/>
<path d="M19.1266 9.10918C18.1767 9.9751 17.1279 10.7281 16 11.348C16.4946 12.529 17.0677 13.6669 17.7125 14.7546C18.8144 14.1516 19.8551 13.4453 20.8225 12.6481C20.1655 11.5264 19.5968 10.3433 19.1266 9.10918Z" fill="#00807F"/>
<path d="M26.8108 19.4221C25.7905 18.6453 24.8354 17.7826 23.9554 16.8442C22.9792 17.6365 22.0584 18.4982 21.1999 19.4221C22.0584 20.346 22.9792 21.2077 23.9554 22C24.8354 21.0617 25.7905 20.1989 26.8108 19.4221Z" fill="#00807F"/>
<path d="M23.0071 35.1631C22.0609 33.1478 20.7355 31.3574 19.1266 29.8908C19.5968 28.6567 20.1655 27.4736 20.8225 26.3519C23.5984 28.6394 25.7703 31.6751 27.0517 35.1631H34.2847V27.2769C30.4559 26.3591 26.9459 24.583 23.9554 22.1558C24.8354 21.2174 25.7905 20.3547 26.8108 19.5779C29.0286 21.2664 31.5542 22.5489 34.2847 23.3191C35.4864 23.6581 36.7277 23.8979 38 24.0293V39H24.2775C24.0034 37.6546 23.5731 36.3686 23.0071 35.1631Z" fill="#DF635A"/>
<path d="M23.9554 22.1558C22.7653 23.4248 21.7128 24.832 20.8225 26.3519C19.8551 25.5547 18.8144 24.8484 17.7125 24.2454C18.7113 22.5604 19.8822 20.9959 21.1999 19.5779C22.0584 20.5018 22.9792 21.3635 23.9554 22.1558Z" fill="#DF635A"/>
<path d="M19.1266 29.8908C18.1767 29.0249 17.1279 28.2719 16 27.652C16.4946 26.471 17.0677 25.3331 17.7125 24.2454C18.8144 24.8484 19.8551 25.5547 20.8225 26.3519C20.1655 27.4736 19.5968 28.6567 19.1266 29.8908Z" fill="#DF635A"/>
<path d="M26.8108 19.5779C25.7905 20.3547 24.8354 21.2174 23.9554 22.1558C22.9792 21.3635 22.0584 20.5018 21.1999 19.5779C22.0584 18.654 22.9792 17.7923 23.9554 17C24.8354 17.9383 25.7905 18.8011 26.8108 19.5779Z" fill="#DF635A"/>
<path d="M3.81552 3.80483H14.0274C14.345 6.42084 15.0367 8.92189 16.0478 11.2532C17.206 10.6386 18.283 9.8918 19.2585 9.03311C18.6041 7.37487 18.1353 5.62365 17.8773 3.80483C17.725 2.73095 17.6463 1.63351 17.6463 0.517728C17.6463 0.344705 17.6482 0.172121 17.6519 0H0V15.2933C1.21491 15.8235 2.49129 16.2396 3.81552 16.5282C5.23304 16.8372 6.7054 17 8.21591 17C11.6805 17 14.9445 16.1435 17.8063 14.6314C17.1442 13.5528 16.5557 12.4244 16.0478 11.2532C13.7123 12.4927 11.0464 13.1951 8.21591 13.1951C6.69285 13.1951 5.21744 12.9917 3.81552 12.6107V3.80483Z" fill="#785D6B"/>
<path d="M19.2585 9.03311C18.283 9.8918 17.206 10.6386 16.0478 11.2532C16.5557 12.4244 17.1442 13.5528 17.8063 14.6314C18.9379 14.0335 20.0066 13.333 21 12.5425C20.3253 11.4301 19.7414 10.257 19.2585 9.03311Z" fill="#785D6B"/>
<path d="M3.81552 35.1952H14.0274C14.345 32.5792 15.0367 30.0781 16.0478 27.7468C17.206 28.3614 18.283 29.1082 19.2585 29.9669C18.6041 31.6251 18.1353 33.3764 17.8773 35.1952C17.725 36.269 17.6463 37.3665 17.6463 38.4823C17.6463 38.6553 17.6482 38.8279 17.6519 39H0V23.7067C1.21491 23.1765 2.49129 22.7604 3.81552 22.4718C5.23304 22.1628 6.7054 22 8.21591 22C11.6805 22 14.9445 22.8565 17.8063 24.3686C17.1442 25.4472 16.5557 26.5756 16.0478 27.7468C13.7123 26.5073 11.0464 25.8049 8.21591 25.8049C6.69285 25.8049 5.21744 26.0083 3.81552 26.3893V35.1952Z" fill="#F4AA16"/>
<path d="M19.2585 29.9669C18.283 29.1082 17.206 28.3614 16.0478 27.7468C16.5557 26.5756 17.1442 25.4472 17.8063 24.3686C18.9379 24.9665 20.0066 25.667 21 26.4575C20.3253 27.5699 19.7414 28.743 19.2585 29.9669Z" fill="#F4AA16"/>
<path d="M19.2417 9C18.2568 9.9203 17.1694 10.7206 16 11.3794C16.5128 12.6347 17.107 13.844 17.7755 15C18.918 14.3592 19.997 13.6085 21 12.7612C20.3188 11.569 19.7292 10.3117 19.2417 9Z" fill="#323232"/>
<path d="M19.2417 30C19.7292 28.6883 20.3188 27.431 21 26.2388C19.997 25.3915 18.918 24.6408 17.7755 24C17.107 25.156 16.5128 26.3653 16 27.6206C17.1694 28.2793 18.2568 29.0797 19.2417 30Z" fill="#DF635A"/>
<path d="M23.9466 17C24.8876 17.91 25.9089 18.7467 27 19.5C25.9089 20.2533 24.8876 21.09 23.9466 22C22.9027 21.2316 21.918 20.396 21 19.5C21.918 18.604 22.9027 17.7684 23.9466 17Z" fill="#323232"/>
</svg>
